<?xml version="1.0" encoding="utf-8"?>
<svg version="1.1" xmlns="http://www.w3.org/2000/svg" xmlns:xlink="http://www.w3.org/1999/xlink" x="0px" y="0px"
	 viewBox="0 0 256 256" style="enable-background:new 0 0 256 256;" xml:space="preserve">
<style type="text/css">
	.st0{fill:#E29038;}
	.st1{fill:#FFFFFF;}
	.st2{fill:#BF4C40;}
	.st3{fill:#5BBC40;enable-background:new    ;}
	.st4{opacity:0.3;fill:#E29038;}
</style>
<rect y="0" class="st0" width="256" height="256"/>
<title>EXT:uniquealiasmapper</title>
<path class="st1" d="M219.7,55.8H36.3c-3.4,0-6.1,2.7-6.1,6.1v132.3c0,3.4,2.7,6.1,6.1,6.1h183.3c3.4,0,6.1-2.7,6.1-6.1V61.9
	C225.7,58.5,223,55.8,219.7,55.8z M213.6,100.4H90.1V65h123.5V100.4z"/>
<title>ext_icon_crawler_transparent2</title>
<circle class="st2" cx="47.7" cy="71.6" r="5.3"/>
<circle class="st3" cx="79.5" cy="71.7" r="5.3"/>
<circle class="st0" cx="63.6" cy="71.6" r="5.3"/>
<path class="st1" d="M114.5,92.3l-1.7-1.5c-5.8-5.2-9.6-8.7-9.6-12.9c0-3.4,2.7-6.1,6.1-6.1c2,0,3.8,1.9,5,3.3
	c1.2-1.4,3.1-3.3,5-3.3c3.4,0,6.1,2.7,6.1,6.1c0,4.3-3.8,7.7-9.6,12.9L114.5,92.3z"/>
<path class="st1" d="M151.9,92.3l-1.7-1.5c-5.8-5.2-9.6-8.7-9.6-12.9c0-3.4,2.7-6.1,6.1-6.1c2,0,3.8,1.9,5,3.3
	c1.2-1.4,3.1-3.3,5-3.3c3.4,0,6.1,2.7,6.1,6.1c0,4.3-3.8,7.7-9.6,12.9L151.9,92.3z"/>
<path class="st1" d="M189.3,92.3l-1.7-1.5c-5.8-5.2-9.6-8.7-9.6-12.9c0-3.4,2.7-6.1,6.1-6.1c2,0,3.8,1.9,5,3.3
	c1.2-1.4,3.1-3.3,5-3.3c3.4,0,6.1,2.7,6.1,6.1c0,4.3-3.8,7.7-9.6,12.9L189.3,92.3z"/>
<rect x="42.4" y="110.9" class="st4" width="171.1" height="77.2"/>
</svg>
